<svg xmlns="http://www.w3.org/2000/svg" viewBox="0 0 420 260"><rect width="420" height="260" rx="36" fill="#FFF7ED"/><circle cx="210" cy="130" r="88" fill="#F59E0B"/><path d="M142 96l-34-54 70 30M278 96l34-54-70 30" fill="#F59E0B"/><ellipse cx="178" cy="126" rx="12" ry="16" fill="#111827"/><ellipse cx="242" cy="126" rx="12" ry="16" fill="#111827"/><path d="M182 163c18 20 38 20 56 0" fill="none" stroke="#111827" stroke-width="9" stroke-linecap="round"/><path d="M104 52l12 20 22 5-17 15 2 23-19-12-20 12 4-23-17-15 22-5z" fill="#FDE047"/><path d="M317 49l9 16 18 4-14 12 2 18-15-9-16 9 3-18-14-12 18-4z" fill="#FDE047"/></svg>
